<svg id="my-svg" width="100%" xmlns="http://www.w3.org/2000/svg" xmlns:xlink="http://www.w3.org/1999/xlink" style="max-width: 637px; background-color: white;" viewBox="-229 -34.72539138793945 637 359.862548828125" role="graphics-document document" aria-roledescription="gitGraph"><style>#my-svg{font-family:"trebuchet ms",verdana,arial,sans-serif;font-size:16px;fill:#333;}@keyframes edge-animation-frame{from{stroke-dashoffset:0;}}@keyframes dash{to{stroke-dashoffset:0;}}#my-svg .edge-animation-slow{stroke-dasharray:9,5!important;stroke-dashoffset:900;animation:dash 50s linear infinite;stroke-linecap:round;}#my-svg .edge-animation-fast{stroke-dasharray:9,5!important;stroke-dashoffset:900;animation:dash 20s linear infinite;stroke-linecap:round;}#my-svg .error-icon{fill:#552222;}#my-svg .error-text{fill:#552222;stroke:#552222;}#my-svg .edge-thickness-normal{stroke-width:1px;}#my-svg .edge-thickness-thick{stroke-width:3.5px;}#my-svg .edge-pattern-solid{stroke-dasharray:0;}#my-svg .edge-thickness-invisible{stroke-width:0;fill:none;}#my-svg .edge-pattern-dashed{stroke-dasharray:3;}#my-svg .edge-pattern-dotted{stroke-dasharray:2;}#my-svg .marker{fill:#333333;stroke:#333333;}#my-svg .marker.cross{stroke:#333333;}#my-svg svg{font-family:"trebuchet ms",verdana,arial,sans-serif;font-size:16px;}#my-svg p{margin:0;}#my-svg .commit-id,#my-svg .commit-msg,#my-svg .branch-label{fill:lightgrey;color:lightgrey;font-family:'trebuchet ms',verdana,arial,sans-serif;font-family:var(--mermaid-font-family);}#my-svg .branch-label0{fill:#ffffff;}#my-svg .commit0{stroke:hsl(240, 100%, 46.2745098039%);fill:hsl(240, 100%, 46.2745098039%);}#my-svg .commit-highlight0{stroke:hsl(60, 100%, 3.7254901961%);fill:hsl(60, 100%, 3.7254901961%);}#my-svg .label0{fill:hsl(240, 100%, 46.2745098039%);}#my-svg .arrow0{stroke:hsl(240, 100%, 46.2745098039%);}#my-svg .branch-label1{fill:black;}#my-svg .commit1{stroke:hsl(60, 100%, 43.5294117647%);fill:hsl(60, 100%, 43.5294117647%);}#my-svg .commit-highlight1{stroke:rgb(0, 0, 160.5);fill:rgb(0, 0, 160.5);}#my-svg .label1{fill:hsl(60, 100%, 43.5294117647%);}#my-svg .arrow1{stroke:hsl(60, 100%, 43.5294117647%);}#my-svg .branch-label2{fill:black;}#my-svg .commit2{stroke:hsl(80, 100%, 46.2745098039%);fill:hsl(80, 100%, 46.2745098039%);}#my-svg .commit-highlight2{stroke:rgb(48.8333333334, 0, 146.5000000001);fill:rgb(48.8333333334, 0, 146.5000000001);}#my-svg .label2{fill:hsl(80, 100%, 46.2745098039%);}#my-svg .arrow2{stroke:hsl(80, 100%, 46.2745098039%);}#my-svg .branch-label3{fill:#ffffff;}#my-svg .commit3{stroke:hsl(210, 100%, 46.2745098039%);fill:hsl(210, 100%, 46.2745098039%);}#my-svg .commit-highlight3{stroke:rgb(146.5000000001, 73.2500000001, 0);fill:rgb(146.5000000001, 73.2500000001, 0);}#my-svg .label3{fill:hsl(210, 100%, 46.2745098039%);}#my-svg .arrow3{stroke:hsl(210, 100%, 46.2745098039%);}#my-svg .branch-label4{fill:black;}#my-svg .commit4{stroke:hsl(180, 100%, 46.2745098039%);fill:hsl(180, 100%, 46.2745098039%);}#my-svg .commit-highlight4{stroke:rgb(146.5000000001, 0, 0);fill:rgb(146.5000000001, 0, 0);}#my-svg .label4{fill:hsl(180, 100%, 46.2745098039%);}#my-svg .arrow4{stroke:hsl(180, 100%, 46.2745098039%);}#my-svg .branch-label5{fill:black;}#my-svg .commit5{stroke:hsl(150, 100%, 46.2745098039%);fill:hsl(150, 100%, 46.2745098039%);}#my-svg .commit-highlight5{stroke:rgb(146.5000000001, 0, 73.2500000001);fill:rgb(146.5000000001, 0, 73.2500000001);}#my-svg .label5{fill:hsl(150, 100%, 46.2745098039%);}#my-svg .arrow5{stroke:hsl(150, 100%, 46.2745098039%);}#my-svg .branch-label6{fill:black;}#my-svg .commit6{stroke:hsl(300, 100%, 46.2745098039%);fill:hsl(300, 100%, 46.2745098039%);}#my-svg .commit-highlight6{stroke:rgb(0, 146.5000000001, 0);fill:rgb(0, 146.5000000001, 0);}#my-svg .label6{fill:hsl(300, 100%, 46.2745098039%);}#my-svg .arrow6{stroke:hsl(300, 100%, 46.2745098039%);}#my-svg .branch-label7{fill:black;}#my-svg .commit7{stroke:hsl(0, 100%, 46.2745098039%);fill:hsl(0, 100%, 46.2745098039%);}#my-svg .commit-highlight7{stroke:rgb(0, 146.5000000001, 146.5000000001);fill:rgb(0, 146.5000000001, 146.5000000001);}#my-svg .label7{fill:hsl(0, 100%, 46.2745098039%);}#my-svg .arrow7{stroke:hsl(0, 100%, 46.2745098039%);}#my-svg .branch{stroke-width:1;stroke:#333333;stroke-dasharray:2;}#my-svg .commit-label{font-size:10px;fill:#000021;}#my-svg .commit-label-bkg{font-size:10px;fill:#ffffde;opacity:0.5;}#my-svg .tag-label{font-size:10px;fill:#131300;}#my-svg .tag-label-bkg{fill:#ECECFF;stroke:hsl(240, 60%, 86.2745098039%);}#my-svg .tag-hole{fill:#333;}#my-svg .commit-merge{stroke:#ECECFF;fill:#ECECFF;}#my-svg .commit-reverse{stroke:#ECECFF;fill:#ECECFF;stroke-width:3;}#my-svg .commit-highlight-inner{stroke:#ECECFF;fill:#ECECFF;}#my-svg .arrow{stroke-width:8;stroke-linecap:round;fill:none;}#my-svg .gitTitleText{text-anchor:middle;font-size:18px;fill:#333;}#my-svg :root{--mermaid-font-family:"trebuchet ms",verdana,arial,sans-serif;}</style><g/><g class="commit-bullets"/><g class="commit-labels"/><g><line x1="0" y1="0" x2="400" y2="0" class="branch branch0"/><rect class="branchLabelBkg label0" rx="4" ry="4" x="-69" y="-1.5" width="53" height="23" transform="translate(-19, -9.5)"/><g class="branchLabel"><g class="label branch-label0" transform="translate(-79, -10.5)"><text><tspan xml:space="preserve" dy="1em" x="0" class="row">main</tspan></text></g></g><line x1="0" y1="90" x2="400" y2="90" class="branch branch1"/><rect class="branchLabelBkg label1" rx="4" ry="4" x="-90.421875" y="-1.5" width="74.421875" height="23" transform="translate(-19, 80.5)"/><g class="branchLabel"><g class="label branch-label1" transform="translate(-100.421875, 79.5)"><text><tspan xml:space="preserve" dy="1em" x="0" class="row">develop</tspan></text></g></g><line x1="0" y1="180" x2="400" y2="180" class="branch branch2"/><rect class="branchLabelBkg label2" rx="4" ry="4" x="-202" y="-1.5" width="186" height="23" transform="translate(-19, 170.5)"/><g class="branchLabel"><g class="label branch-label2" transform="translate(-212, 169.5)"><text><tspan xml:space="preserve" dy="1em" x="0" class="row">feature/html-tokenizer</tspan></text></g></g><line x1="0" y1="270" x2="400" y2="270" class="branch branch3"/><rect class="branchLabelBkg label3" rx="4" ry="4" x="-167.1875" y="-1.5" width="151.1875" height="23" transform="translate(-19, 260.5)"/><g class="branchLabel"><g class="label branch-label3" transform="translate(-177.1875, 259.5)"><text><tspan xml:space="preserve" dy="1em" x="0" class="row">feature/css-parser</tspan></text></g></g></g><g class="commit-arrows"><path d="M 10 0 L 10 70 A 20 20, 0, 0, 0, 30 90 L 60 90" class="arrow arrow1"/><path d="M 60 90 L 60 160 A 20 20, 0, 0, 0, 80 180 L 110 180" class="arrow arrow2"/><path d="M 110 180 L 160 180" class="arrow arrow2"/><path d="M 60 90 L 210 90" class="arrow arrow1"/><path d="M 160 180 L 190 180 A 20 20, 0, 0, 0, 210 160 L 210 90" class="arrow arrow2"/><path d="M 210 90 L 210 250 A 20 20, 0, 0, 0, 230 270 L 260 270" class="arrow arrow3"/><path d="M 210 90 L 310 90" class="arrow arrow1"/><path d="M 260 270 L 290 270 A 20 20, 0, 0, 0, 310 250 L 310 90" class="arrow arrow3"/><path d="M 10 0 L 360 0" class="arrow arrow0"/><path d="M 310 90 L 340 90 A 20 20, 0, 0, 0, 360 70 L 360 0" class="arrow arrow1"/></g><g class="commit-bullets"><circle cx="10" cy="0" r="10" class="commit init commit0"/><circle cx="60" cy="90" r="10" class="commit p0-toolchain commit1"/><circle cx="110" cy="180" r="10" class="commit tokenizer-wip commit2"/><circle cx="160" cy="180" r="10" class="commit tokenizer-done commit2"/><circle cx="210" cy="90" r="9" class="commit 4-993539f commit1"/><circle cx="210" cy="90" r="6" class="commit commit-merge 4-993539f commit1"/><circle cx="260" cy="270" r="10" class="commit css-wip commit3"/><circle cx="310" cy="90" r="9" class="commit 6-d4ad9bb commit1"/><circle cx="310" cy="90" r="6" class="commit commit-merge 6-d4ad9bb commit1"/><circle cx="360" cy="0" r="9" class="commit 7-9ea3bdd commit0"/><circle cx="360" cy="0" r="6" class="commit commit-merge 7-9ea3bdd commit0"/></g><g class="commit-labels"><g transform="translate(-17.0534375, 15.1478125) rotate(-45, 0, 0)"><rect class="commit-label-bkg" x="0.4296875" y="13.5" width="19.140625" height="15"/><text x="2.4296875" y="25" class="commit-label">init</text></g><g transform="translate(-32.6275, 29.0825) rotate(-45, 50, 90)"><rect class="commit-label-bkg" x="29.9375" y="103.5" width="60.125" height="15.05078125"/><text x="31.9375" y="115" class="commit-label">p0-toolchain</text></g><g transform="translate(-34.776875, 31.005625) rotate(-45, 100, 180)"><rect class="commit-label-bkg" x="77.109375" y="193.5" width="65.78125" height="15.05078125"/><text x="79.109375" y="205" class="commit-label">tokenizer-wip</text></g><g transform="translate(-37.0509375, 33.0403125) rotate(-45, 150, 180)"><rect class="commit-label-bkg" x="124.1171875" y="193.5" width="71.765625" height="15"/><text x="126.1171875" y="205" class="commit-label">tokenizer-done</text></g><g transform="translate(-23.685625, 21.081875) rotate(-45, 250, 270)"><rect class="commit-label-bkg" x="241.703125" y="283.5" width="36.59375" height="15.05078125"/><text x="243.703125" y="295" class="commit-label">css-wip</text></g><polygon class="tag-label-bkg" points="319.9296875,-17.2  &#10;      319.9296875,-21.2&#10;      327.9296875,-26.725390625&#10;      392.0703125,-26.725390625&#10;      392.0703125,-11.674609375&#10;      327.9296875,-11.674609375"/><circle cy="-19.2" cx="323.9296875" r="1.5" class="tag-hole"/><text y="-16" class="tag-label" x="331.9296875">v0.1.0-alpha</text></g></svg>